<svg width="22" height="22" viewBox="0 0 22 22" fill="none" xmlns="http://www.w3.org/2000/svg">
<path d="M17.184 11.2917C17.3628 11.4758 17.4629 11.7225 17.4629 11.9792C17.4629 12.2359 17.3628 12.4825 17.184 12.6667L11.684 18.1505C11.5963 18.2425 11.4909 18.3158 11.3741 18.3658C11.2573 18.4159 11.1316 18.4417 11.0045 18.4417C10.8775 18.4417 10.7517 18.4159 10.635 18.3658C10.5182 18.3158 10.4128 18.2425 10.3251 18.1505L4.82513 12.6667C4.6428 12.4843 4.54036 12.237 4.54036 11.9792C4.54036 11.7213 4.6428 11.474 4.82513 11.2917C5.00747 11.1093 5.25477 11.0069 5.51263 11.0069C5.77049 11.0069 6.0178 11.1093 6.20013 11.2917L10.034 15.1255V4.52991C10.034 4.2725 10.1362 4.02563 10.3182 3.84361C10.5003 3.66158 10.7471 3.55933 11.0045 3.55933C11.262 3.55933 11.5088 3.66158 11.6909 3.84361C11.8729 4.02563 11.9751 4.2725 11.9751 4.52991V15.1255L15.809 11.2917C15.9931 11.1128 16.2397 11.0128 16.4965 11.0128C16.7532 11.0128 16.9998 11.1128 17.184 11.2917Z" fill="black"/>
</svg>
