<svg width="25" height="16" viewBox="0 0 25 16" fill="none" xmlns="http://www.w3.org/2000/svg">
<path d="M0.833007 8.12585C0.833007 8.39173 0.923097 8.61445 1.10327 8.794C1.28282 8.97418 1.50554 9.06426 1.77142 9.06426L21.6424 9.06426L17.0676 13.639C16.8799 13.8267 16.7861 14.0498 16.7861 14.3081C16.7861 14.5659 16.8799 14.7886 17.0676 14.9763C17.2553 15.164 17.4743 15.2578 17.7245 15.2578C17.9747 15.2578 18.1937 15.164 18.3814 14.9763L24.5749 8.78274C24.6688 8.6889 24.7354 8.58724 24.7748 8.47775C24.8136 8.36827 24.833 8.25097 24.833 8.12585C24.833 8.00073 24.8136 7.87936 24.7748 7.76174C24.7354 7.64475 24.6688 7.54716 24.5749 7.46896L18.3814 1.27541C18.1937 1.08772 17.9747 0.993882 17.7245 0.993882C17.4743 0.993882 17.2553 1.08772 17.0676 1.27541C16.8799 1.46309 16.7861 1.68612 16.7861 1.9445C16.7861 2.20225 16.8799 2.42497 17.0676 2.61265L21.6424 7.18743L1.77142 7.18743C1.50554 7.18743 1.28282 7.27721 1.10327 7.45676C0.923097 7.63693 0.833007 7.85996 0.833007 8.12585Z" fill="black"/>
</svg>
